<mxfile host="app.diagrams.net" agent="Mozilla/5.0 (X11; Linux x86_64; rv:131.0) Gecko/20100101 Firefox/131.0" version="24.8.6">
  <diagram name="Page-1" id="-SEceGoZBcMWv-jQRAB2">
    <mxGraphModel dx="714" dy="786" grid="1" gridSize="10" guides="1" tooltips="1" connect="1" arrows="1" fold="1" page="1" pageScale="1" pageWidth="850" pageHeight="1100" math="0" shadow="0">
      <root>
        <mxCell id="0" />
        <mxCell id="1" parent="0" />
        <mxCell id="6Y_rJADUlVsYh3A6pJNN-1" value="&lt;div&gt;Graph&lt;/div&gt;&lt;div&gt;&lt;br&gt;&lt;/div&gt;" style="swimlane;fontStyle=1;align=center;verticalAlign=top;childLayout=stackLayout;horizontal=1;startSize=26;horizontalStack=0;resizeParent=1;resizeParentMax=0;resizeLast=0;collapsible=1;marginBottom=0;whiteSpace=wrap;html=1;" vertex="1" parent="1">
          <mxGeometry x="325" y="240" width="260" height="150" as="geometry" />
        </mxCell>
        <mxCell id="6Y_rJADUlVsYh3A6pJNN-2" value="+ adjecencyListMap: Map" style="text;strokeColor=none;fillColor=none;align=left;verticalAlign=top;spacingLeft=4;spacingRight=4;overflow=hidden;rotatable=0;points=[[0,0.5],[1,0.5]];portConstraint=eastwest;whiteSpace=wrap;html=1;" vertex="1" parent="6Y_rJADUlVsYh3A6pJNN-1">
          <mxGeometry y="26" width="260" height="26" as="geometry" />
        </mxCell>
        <mxCell id="6Y_rJADUlVsYh3A6pJNN-3" value="" style="line;strokeWidth=1;fillColor=none;align=left;verticalAlign=middle;spacingTop=-1;spacingLeft=3;spacingRight=3;rotatable=0;labelPosition=right;points=[];portConstraint=eastwest;strokeColor=inherit;" vertex="1" parent="6Y_rJADUlVsYh3A6pJNN-1">
          <mxGeometry y="52" width="260" height="8" as="geometry" />
        </mxCell>
        <mxCell id="6Y_rJADUlVsYh3A6pJNN-4" value="&lt;div&gt;+ shrinkToOnlyValuesOfInterest(String): List&lt;/div&gt;&lt;div&gt;+ BuildGraphByList(ArrayList): None&lt;/div&gt;&lt;div&gt;+ addEdge(Node, Node): None&lt;/div&gt;&lt;div&gt;+ getNeighbors(Node): List&lt;/div&gt;&lt;div&gt;+ getAllKeys(): ArrayList&lt;br&gt;&lt;/div&gt;" style="text;strokeColor=none;fillColor=none;align=left;verticalAlign=top;spacingLeft=4;spacingRight=4;overflow=hidden;rotatable=0;points=[[0,0.5],[1,0.5]];portConstraint=eastwest;whiteSpace=wrap;html=1;" vertex="1" parent="6Y_rJADUlVsYh3A6pJNN-1">
          <mxGeometry y="60" width="260" height="90" as="geometry" />
        </mxCell>
        <mxCell id="6Y_rJADUlVsYh3A6pJNN-5" value="&lt;div&gt;IO_functions&lt;/div&gt;&lt;div&gt;&lt;br&gt;&lt;/div&gt;" style="swimlane;fontStyle=1;align=center;verticalAlign=top;childLayout=stackLayout;horizontal=1;startSize=26;horizontalStack=0;resizeParent=1;resizeParentMax=0;resizeLast=0;collapsible=1;marginBottom=0;whiteSpace=wrap;html=1;" vertex="1" parent="1">
          <mxGeometry x="325" y="40" width="260" height="170" as="geometry" />
        </mxCell>
        <mxCell id="6Y_rJADUlVsYh3A6pJNN-6" value="&lt;div&gt;+ sourceFileContent: ArrayList&lt;/div&gt;&lt;div&gt;+ sourceFilePath: String&lt;br&gt;&lt;/div&gt;" style="text;strokeColor=none;fillColor=none;align=left;verticalAlign=top;spacingLeft=4;spacingRight=4;overflow=hidden;rotatable=0;points=[[0,0.5],[1,0.5]];portConstraint=eastwest;whiteSpace=wrap;html=1;" vertex="1" parent="6Y_rJADUlVsYh3A6pJNN-5">
          <mxGeometry y="26" width="260" height="44" as="geometry" />
        </mxCell>
        <mxCell id="6Y_rJADUlVsYh3A6pJNN-7" value="" style="line;strokeWidth=1;fillColor=none;align=left;verticalAlign=middle;spacingTop=-1;spacingLeft=3;spacingRight=3;rotatable=0;labelPosition=right;points=[];portConstraint=eastwest;strokeColor=inherit;" vertex="1" parent="6Y_rJADUlVsYh3A6pJNN-5">
          <mxGeometry y="70" width="260" height="8" as="geometry" />
        </mxCell>
        <mxCell id="6Y_rJADUlVsYh3A6pJNN-8" value="&lt;div&gt;+ getFilePath(String): String&lt;/div&gt;&lt;div&gt;+ getContent(): ArrayList&lt;/div&gt;&lt;div&gt;+ setFilePath(String: None&lt;/div&gt;&lt;div&gt;+ readFile(): None&lt;/div&gt;&lt;div&gt;+ remodedDouplicates(List): List&lt;br&gt;&lt;/div&gt;" style="text;strokeColor=none;fillColor=none;align=left;verticalAlign=top;spacingLeft=4;spacingRight=4;overflow=hidden;rotatable=0;points=[[0,0.5],[1,0.5]];portConstraint=eastwest;whiteSpace=wrap;html=1;" vertex="1" parent="6Y_rJADUlVsYh3A6pJNN-5">
          <mxGeometry y="78" width="260" height="92" as="geometry" />
        </mxCell>
        <mxCell id="6Y_rJADUlVsYh3A6pJNN-9" value="&lt;div&gt;Main&lt;/div&gt;&lt;div&gt;&lt;br&gt;&lt;/div&gt;" style="swimlane;fontStyle=1;align=center;verticalAlign=top;childLayout=stackLayout;horizontal=1;startSize=26;horizontalStack=0;resizeParent=1;resizeParentMax=0;resizeLast=0;collapsible=1;marginBottom=0;whiteSpace=wrap;html=1;" vertex="1" parent="1">
          <mxGeometry x="40" y="200" width="200" height="60" as="geometry" />
        </mxCell>
        <mxCell id="6Y_rJADUlVsYh3A6pJNN-11" value="" style="line;strokeWidth=1;fillColor=none;align=left;verticalAlign=middle;spacingTop=-1;spacingLeft=3;spacingRight=3;rotatable=0;labelPosition=right;points=[];portConstraint=eastwest;strokeColor=inherit;" vertex="1" parent="6Y_rJADUlVsYh3A6pJNN-9">
          <mxGeometry y="26" width="200" height="8" as="geometry" />
        </mxCell>
        <mxCell id="6Y_rJADUlVsYh3A6pJNN-12" value="+ main(String): None" style="text;strokeColor=none;fillColor=none;align=left;verticalAlign=top;spacingLeft=4;spacingRight=4;overflow=hidden;rotatable=0;points=[[0,0.5],[1,0.5]];portConstraint=eastwest;whiteSpace=wrap;html=1;" vertex="1" parent="6Y_rJADUlVsYh3A6pJNN-9">
          <mxGeometry y="34" width="200" height="26" as="geometry" />
        </mxCell>
        <mxCell id="6Y_rJADUlVsYh3A6pJNN-13" value="&lt;div&gt;Node&lt;/div&gt;&lt;div&gt;&lt;br&gt;&lt;/div&gt;" style="swimlane;fontStyle=1;align=center;verticalAlign=top;childLayout=stackLayout;horizontal=1;startSize=26;horizontalStack=0;resizeParent=1;resizeParentMax=0;resizeLast=0;collapsible=1;marginBottom=0;whiteSpace=wrap;html=1;" vertex="1" parent="1">
          <mxGeometry x="40" y="410" width="200" height="86" as="geometry" />
        </mxCell>
        <mxCell id="6Y_rJADUlVsYh3A6pJNN-14" value="value: Char" style="text;strokeColor=none;fillColor=none;align=left;verticalAlign=top;spacingLeft=4;spacingRight=4;overflow=hidden;rotatable=0;points=[[0,0.5],[1,0.5]];portConstraint=eastwest;whiteSpace=wrap;html=1;" vertex="1" parent="6Y_rJADUlVsYh3A6pJNN-13">
          <mxGeometry y="26" width="200" height="26" as="geometry" />
        </mxCell>
        <mxCell id="6Y_rJADUlVsYh3A6pJNN-15" value="" style="line;strokeWidth=1;fillColor=none;align=left;verticalAlign=middle;spacingTop=-1;spacingLeft=3;spacingRight=3;rotatable=0;labelPosition=right;points=[];portConstraint=eastwest;strokeColor=inherit;" vertex="1" parent="6Y_rJADUlVsYh3A6pJNN-13">
          <mxGeometry y="52" width="200" height="8" as="geometry" />
        </mxCell>
        <mxCell id="6Y_rJADUlVsYh3A6pJNN-16" value="+ toString: String" style="text;strokeColor=none;fillColor=none;align=left;verticalAlign=top;spacingLeft=4;spacingRight=4;overflow=hidden;rotatable=0;points=[[0,0.5],[1,0.5]];portConstraint=eastwest;whiteSpace=wrap;html=1;" vertex="1" parent="6Y_rJADUlVsYh3A6pJNN-13">
          <mxGeometry y="60" width="200" height="26" as="geometry" />
        </mxCell>
        <mxCell id="6Y_rJADUlVsYh3A6pJNN-17" value="TopologicalSort" style="swimlane;fontStyle=1;align=center;verticalAlign=top;childLayout=stackLayout;horizontal=1;startSize=26;horizontalStack=0;resizeParent=1;resizeParentMax=0;resizeLast=0;collapsible=1;marginBottom=0;whiteSpace=wrap;html=1;" vertex="1" parent="1">
          <mxGeometry x="325" y="410" width="260" height="70" as="geometry" />
        </mxCell>
        <mxCell id="6Y_rJADUlVsYh3A6pJNN-22" value="" style="line;strokeWidth=1;fillColor=none;align=left;verticalAlign=middle;spacingTop=-1;spacingLeft=3;spacingRight=3;rotatable=0;labelPosition=right;points=[];portConstraint=eastwest;strokeColor=inherit;" vertex="1" parent="6Y_rJADUlVsYh3A6pJNN-17">
          <mxGeometry y="26" width="260" height="8" as="geometry" />
        </mxCell>
        <mxCell id="6Y_rJADUlVsYh3A6pJNN-20" value="&lt;div&gt;+ topologicalSort(Graph, List): List&lt;/div&gt;" style="text;strokeColor=none;fillColor=none;align=left;verticalAlign=top;spacingLeft=4;spacingRight=4;overflow=hidden;rotatable=0;points=[[0,0.5],[1,0.5]];portConstraint=eastwest;whiteSpace=wrap;html=1;" vertex="1" parent="6Y_rJADUlVsYh3A6pJNN-17">
          <mxGeometry y="34" width="260" height="36" as="geometry" />
        </mxCell>
        <mxCell id="6Y_rJADUlVsYh3A6pJNN-23" value="1" style="endArrow=open;html=1;endSize=12;startArrow=diamondThin;startSize=14;startFill=0;edgeStyle=orthogonalEdgeStyle;align=left;verticalAlign=bottom;rounded=0;exitX=0.531;exitY=0.021;exitDx=0;exitDy=0;exitPerimeter=0;" edge="1" parent="1" source="6Y_rJADUlVsYh3A6pJNN-9" target="6Y_rJADUlVsYh3A6pJNN-5">
          <mxGeometry x="-0.91" y="-14" relative="1" as="geometry">
            <mxPoint x="240" y="240" as="sourcePoint" />
            <mxPoint x="270" y="164" as="targetPoint" />
            <Array as="points">
              <mxPoint x="146" y="130" />
            </Array>
            <mxPoint as="offset" />
          </mxGeometry>
        </mxCell>
        <mxCell id="6Y_rJADUlVsYh3A6pJNN-24" value="1" style="endArrow=open;html=1;endSize=12;startArrow=diamondThin;startSize=14;startFill=0;edgeStyle=orthogonalEdgeStyle;align=left;verticalAlign=bottom;rounded=0;" edge="1" parent="1" source="6Y_rJADUlVsYh3A6pJNN-9" target="6Y_rJADUlVsYh3A6pJNN-1">
          <mxGeometry x="-1" y="3" relative="1" as="geometry">
            <mxPoint x="200" y="330" as="sourcePoint" />
            <mxPoint x="360" y="330" as="targetPoint" />
          </mxGeometry>
        </mxCell>
        <mxCell id="6Y_rJADUlVsYh3A6pJNN-25" value="1" style="endArrow=open;html=1;endSize=12;startArrow=diamondThin;startSize=14;startFill=0;edgeStyle=orthogonalEdgeStyle;align=left;verticalAlign=bottom;rounded=0;" edge="1" parent="1" source="6Y_rJADUlVsYh3A6pJNN-9" target="6Y_rJADUlVsYh3A6pJNN-13">
          <mxGeometry x="-0.7333" y="30" relative="1" as="geometry">
            <mxPoint x="200" y="330" as="sourcePoint" />
            <mxPoint x="360" y="330" as="targetPoint" />
            <mxPoint as="offset" />
          </mxGeometry>
        </mxCell>
        <mxCell id="6Y_rJADUlVsYh3A6pJNN-26" value="1" style="endArrow=open;html=1;endSize=12;startArrow=diamondThin;startSize=14;startFill=0;edgeStyle=orthogonalEdgeStyle;align=left;verticalAlign=bottom;rounded=0;" edge="1" parent="1" source="6Y_rJADUlVsYh3A6pJNN-9" target="6Y_rJADUlVsYh3A6pJNN-17">
          <mxGeometry x="-0.8378" y="10" relative="1" as="geometry">
            <mxPoint x="200" y="330" as="sourcePoint" />
            <mxPoint x="360" y="330" as="targetPoint" />
            <Array as="points">
              <mxPoint x="140" y="360" />
              <mxPoint x="270" y="360" />
              <mxPoint x="270" y="445" />
            </Array>
            <mxPoint as="offset" />
          </mxGeometry>
        </mxCell>
      </root>
    </mxGraphModel>
  </diagram>
</mxfile>
